<svg width="118" height="118" viewBox="0 0 118 118" fill="none" xmlns="http://www.w3.org/2000/svg">
<path  d="M108.781 3.6875H9.21875C7.7523 3.68921 6.34639 4.27251 5.30945 5.30945C4.27251 6.34639 3.68921 7.7523 3.6875 9.21875V86.6562C3.68921 88.1227 4.27251 89.5286 5.30945 90.5655C6.34639 91.6025 7.7523 92.1858 9.21875 92.1875H55.3125V106.938H36.875V114.312H81.125V106.938H62.6875V92.1875H108.781C110.248 92.1858 111.654 91.6025 112.691 90.5655C113.727 89.5286 114.311 88.1227 114.312 86.6562V9.21875C114.311 7.7523 113.727 6.34639 112.691 5.30945C111.654 4.27251 110.248 3.68921 108.781 3.6875ZM106.938 84.8125H11.0625V62.6875H106.938V84.8125ZM106.938 55.3125H11.0625V11.0625H106.938V55.3125Z" fill="#00a0dc"/>
<path  d="M92.1875 70.0625H99.5625V77.4375H92.1875V70.0625Z" fill="#00a0dc"/>
</svg>
