<svg width="48" height="29" viewBox="0 0 48 29" fill="none" xmlns="http://www.w3.org/2000/svg">
<path d="M12.1758 9.22543L4.08351 14.25L12.1758 19.2746C12.3412 19.3733 12.4786 19.4956 12.5798 19.6343C12.6811 19.773 12.7442 19.9254 12.7655 20.0825C12.7867 20.2396 12.7657 20.3983 12.7037 20.5493C12.6417 20.7003 12.5399 20.8405 12.4042 20.9618C12.2685 21.0832 12.1018 21.1831 11.9137 21.2558C11.7255 21.3285 11.5199 21.3725 11.3086 21.3853C11.0974 21.3981 10.8849 21.3793 10.6835 21.3302C10.4821 21.281 10.2959 21.2024 10.1358 21.0989L0.573272 15.1614C0.39384 15.05 0.249482 14.9105 0.150416 14.7529C0.0513505 14.5953 0 14.4234 0 14.2493C0 14.0752 0.0513505 13.9033 0.150416 13.7457C0.249482 13.5881 0.39384 13.4486 0.573272 13.3371L10.1358 7.39965C10.4607 7.19808 10.8798 7.10095 11.3009 7.12963C11.7219 7.1583 12.1104 7.31043 12.381 7.55254C12.6515 7.79465 12.7818 8.10692 12.7434 8.42065C12.7049 8.73438 12.5007 9.02387 12.1758 9.22543ZM47.2383 13.3371L37.6758 7.39965C37.5149 7.29984 37.3292 7.22463 37.1293 7.1783C36.9294 7.13197 36.7192 7.11543 36.5107 7.12963C36.3022 7.14382 36.0995 7.18848 35.9142 7.26104C35.7289 7.33361 35.5645 7.43266 35.4306 7.55254C35.1601 7.79465 35.0297 8.10692 35.0682 8.42065C35.1067 8.73438 35.3108 9.02387 35.6358 9.22543L43.728 14.25L35.6358 19.2746C35.4703 19.3733 35.333 19.4956 35.2317 19.6343C35.1305 19.773 35.0673 19.9254 35.0461 20.0825C35.0248 20.2396 35.0458 20.3983 35.1078 20.5493C35.1699 20.7003 35.2717 20.8405 35.4073 20.9618C35.543 21.0832 35.7098 21.1831 35.8979 21.2558C36.086 21.3285 36.2917 21.3725 36.5029 21.3853C36.7141 21.3981 36.9267 21.3793 37.1281 21.3302C37.3294 21.281 37.5156 21.2024 37.6758 21.0989L47.2383 15.1614C47.4177 15.05 47.5621 14.9105 47.6611 14.7529C47.7602 14.5953 47.8115 14.4234 47.8115 14.2493C47.8115 14.0752 47.7602 13.9033 47.6611 13.7457C47.5621 13.5881 47.4177 13.4486 47.2383 13.3371ZM30.8246 0.0712893C30.6279 0.018069 30.419 -0.00575661 30.2099 0.00117295C30.0008 0.0081025 29.7956 0.0456517 29.606 0.111676C29.4164 0.1777 29.2461 0.270907 29.1048 0.385974C28.9635 0.501041 28.8541 0.635715 28.7826 0.782305L16.0326 26.9073C15.9609 27.054 15.9287 27.2098 15.9378 27.3657C15.947 27.5217 15.9973 27.6748 16.086 27.8162C16.1746 27.9577 16.2998 28.0847 16.4544 28.1901C16.609 28.2954 16.7899 28.3771 16.9869 28.4303C17.1615 28.4765 17.3455 28.5001 17.5308 28.5C17.8581 28.5 18.1774 28.425 18.4455 28.285C18.7135 28.1451 18.9172 27.947 19.0289 27.7178L31.7789 1.59277C31.8503 1.44619 31.8823 1.29055 31.873 1.13476C31.8637 0.978959 31.8133 0.826054 31.7247 0.68477C31.6361 0.543486 31.511 0.416591 31.3566 0.311329C31.2021 0.206068 31.0214 0.124502 30.8246 0.0712893Z" fill="#FF004F"/>
</svg>
