<svg width="116" height="116" viewBox="0 0 116 116" fill="none" xmlns="http://www.w3.org/2000/svg">
<g clip-path="url(#clip0_721_1024)">
<path d="M5.4375 116H56.1875C56.6682 116 57.1292 115.809 57.4691 115.469C57.809 115.129 58 114.668 58 114.188C58 113.707 57.809 113.246 57.4691 112.906C57.1292 112.566 56.6682 112.375 56.1875 112.375H5.4375C4.9568 112.375 4.49578 112.184 4.15587 111.844C3.81596 111.504 3.625 111.043 3.625 110.562V5.4375C3.625 4.9568 3.81596 4.49578 4.15587 4.15587C4.49578 3.81596 4.9568 3.625 5.4375 3.625H81.5625C82.0432 3.625 82.5042 3.81596 82.8441 4.15587C83.184 4.49578 83.375 4.9568 83.375 5.4375V23.5625C83.375 24.0432 83.566 24.5042 83.9059 24.8441C84.2458 25.184 84.7068 25.375 85.1875 25.375C85.6682 25.375 86.1292 25.184 86.4691 24.8441C86.809 24.5042 87 24.0432 87 23.5625V5.4375C87 2.43962 84.5604 0 81.5625 0H5.4375C2.43962 0 0 2.43962 0 5.4375V110.562C0 113.56 2.43962 116 5.4375 116Z" fill="black"/>
<path d="M65.25 38.0625V110.562C65.25 113.56 67.6896 116 70.6875 116H110.562C113.56 116 116 113.56 116 110.562V38.0625C116 35.0646 113.56 32.625 110.562 32.625H70.6875C67.6896 32.625 65.25 35.0646 65.25 38.0625ZM112.375 38.0625V110.562C112.375 111.043 112.184 111.504 111.844 111.844C111.504 112.184 111.043 112.375 110.562 112.375H70.6875C70.2068 112.375 69.7458 112.184 69.4059 111.844C69.066 111.504 68.875 111.043 68.875 110.562V38.0625C68.875 37.5818 69.066 37.1208 69.4059 36.7809C69.7458 36.441 70.2068 36.25 70.6875 36.25H110.562C111.043 36.25 111.504 36.441 111.844 36.7809C112.184 37.1208 112.375 37.5818 112.375 38.0625Z" fill="black"/>
<path d="M43.5 105.125C45.502 105.125 47.125 103.502 47.125 101.5C47.125 99.498 45.502 97.875 43.5 97.875C41.498 97.875 39.875 99.498 39.875 101.5C39.875 103.502 41.498 105.125 43.5 105.125Z" fill="black"/>
<path d="M90.625 105.125C92.627 105.125 94.25 103.502 94.25 101.5C94.25 99.498 92.627 97.875 90.625 97.875C88.623 97.875 87 99.498 87 101.5C87 103.502 88.623 105.125 90.625 105.125Z" fill="black"/>
</g>
<defs>
<clipPath id="clip0_721_1024">
<rect width="116" height="116" fill="#00a0dc"/>
</clipPath>
</defs>
</svg>
