<?xml version="1.0" encoding="utf-8"?>
<!-- Generator: Adobe Illustrator 25.0.1, SVG Export Plug-In . SVG Version: 6.00 Build 0)  -->
<svg version="1.1" id="Layer_1" xmlns="http://www.w3.org/2000/svg" xmlns:xlink="http://www.w3.org/1999/xlink" x="0px" y="0px"
	 width="93.8px" height="80px" viewBox="0 0 93.8 80" style="enable-background:new 0 0 93.8 80;" xml:space="preserve">
<style type="text/css">
	.st0{fill:#FF004F;}
	.st1{fill:none;stroke:#FF004F;stroke-miterlimit:10;}
	.st2{fill:none;}
</style>
<path class="st0" d="M34.5,67v-2.6H20.4c-4.9,0-8.9-4-8.9-8.9V26.7l6.7,6.7l1.8-1.8l-8.9-8.9l-0.9-0.9l-0.9,0.9l-8.9,8.9l1.8,1.8
	l6.7-6.7v28.8c0,6.3,5.2,11.5,11.5,11.5H34.5z M84.5,57.7l8.9-8.9l-1.8-1.8l-6.7,6.7V24.9c0-6.3-5.2-11.5-11.5-11.5H59.3v2.6h14.1
	c4.9,0,8.9,4,8.9,8.9v28.8l-6.7-6.7l-1.8,1.8l8.9,8.9l0.9,0.9L84.5,57.7z"/>
<g>
	<rect x="23" y="6" class="st1" width="27" height="18.3"/>
	<path class="st0" d="M31.5,13l-3.5,2.1l3.5,2.1c0.1,0,0.1,0.1,0.2,0.2c0,0.1,0.1,0.1,0.1,0.2c0,0.1,0,0.1,0,0.2s-0.1,0.1-0.1,0.2
		c-0.1,0.1-0.1,0.1-0.2,0.1c-0.1,0-0.2,0-0.3,0.1c-0.1,0-0.2,0-0.3,0c-0.1,0-0.2-0.1-0.2-0.1l-4.1-2.5c-0.1,0-0.1-0.1-0.2-0.2
		c0-0.1-0.1-0.1-0.1-0.2c0-0.1,0-0.1,0.1-0.2s0.1-0.1,0.2-0.2l4.1-2.5c0.1-0.1,0.3-0.1,0.5-0.1c0.2,0,0.3,0.1,0.5,0.2
		c0.1,0.1,0.2,0.2,0.2,0.4C31.8,12.8,31.7,12.9,31.5,13z M46.5,14.7l-4.1-2.5c-0.1,0-0.1-0.1-0.2-0.1s-0.2,0-0.3,0
		c-0.1,0-0.2,0-0.3,0.1c-0.1,0-0.1,0.1-0.2,0.1c-0.1,0.1-0.2,0.2-0.2,0.4c0,0.1,0.1,0.3,0.2,0.3l3.5,2.1l-3.5,2.1
		c-0.1,0-0.1,0.1-0.2,0.2c0,0.1-0.1,0.1-0.1,0.2c0,0.1,0,0.1,0,0.2c0,0.1,0.1,0.1,0.1,0.2c0.1,0.1,0.1,0.1,0.2,0.1
		c0.1,0,0.2,0,0.3,0.1c0.1,0,0.2,0,0.3,0c0.1,0,0.2-0.1,0.2-0.1l4.1-2.5c0.1,0,0.1-0.1,0.2-0.2c0-0.1,0.1-0.1,0.1-0.2
		c0-0.1,0-0.1-0.1-0.2C46.7,14.8,46.6,14.8,46.5,14.7z M39.5,9.1c-0.1,0-0.2,0-0.3,0c-0.1,0-0.2,0-0.3,0c-0.1,0-0.2,0.1-0.2,0.1
		s-0.1,0.1-0.1,0.2l-5.5,11.2c0,0.1,0,0.1,0,0.2c0,0.1,0,0.1,0.1,0.2c0,0.1,0.1,0.1,0.2,0.2c0.1,0,0.1,0.1,0.2,0.1
		c0.1,0,0.2,0,0.2,0c0.1,0,0.3,0,0.4-0.1c0.1-0.1,0.2-0.1,0.2-0.2l5.5-11.2c0-0.1,0-0.1,0-0.2c0-0.1,0-0.1-0.1-0.2
		c0-0.1-0.1-0.1-0.2-0.2C39.7,9.1,39.6,9.1,39.5,9.1z"/>
</g>
<g>
	<rect x="44.3" y="55.8" class="st1" width="27" height="18.3"/>
	<g>
		<path class="st2" d="M66.4,56.4v17.1H49.3V56.4H66.4z"/>
		<path class="st0" d="M60.7,60h-8.5v2.8h8.5V60z M61.4,58.6l3.6,2.8l-3.6,2.8H50.7v-5.7H61.4z M55,70h1.4v-2.1h1.4V70h1.4v-1.4h1.4
			V70h1.4v-2.8h-10V70h1.4v-1.4H55V70z M63.5,66.4v4.3c0,0.4-0.3,0.7-0.7,0.7H51.4c-0.4,0-0.7-0.3-0.7-0.7v-4.3
			c0-0.4,0.3-0.7,0.7-0.7h11.4C63.2,65.7,63.5,66,63.5,66.4z"/>
	</g>
</g>
</svg>
