<svg width="25" height="25" viewBox="0 0 25 25" fill="none" xmlns="http://www.w3.org/2000/svg">
<circle cx="12.5" cy="12.5" r="12.5" fill="#D9D9D9"/>
<path d="M8.35782 6.66741C8.3576 7.10941 8.1805 7.53322 7.86548 7.84561C7.55047 8.158 7.12334 8.33337 6.67807 8.33315C6.2328 8.33293 5.80585 8.15713 5.49115 7.84443C5.17645 7.53173 4.99978 7.10774 5 6.66574C5.00022 6.22374 5.17732 5.79993 5.49233 5.48754C5.80735 5.17515 6.23447 4.99978 6.67975 5C7.12502 5.00022 7.55197 5.17602 7.86667 5.48872C8.18137 5.80142 8.35804 6.2254 8.35782 6.66741ZM8.40819 9.56725H5.05037V20H8.40819V9.56725ZM13.7135 9.56725H10.3725V20H13.68V14.5253C13.68 11.4755 17.6842 11.1922 17.6842 14.5253V20H21V13.392C21 8.25065 15.0735 8.44231 13.68 10.9672L13.7135 9.56725Z" fill="black"/>
</svg>
