<svg width="33" height="38" viewBox="0 0 33 38" fill="none" xmlns="http://www.w3.org/2000/svg">
<path d="M27.4223 4.70742C24.3884 1.67178 20.3544 0 16.0637 0C11.773 0 7.7389 1.67178 4.70494 4.70742C1.6709 7.74312 0 11.7792 0 16.0721C0 24.7566 8.20712 31.9799 12.6163 35.8606C13.229 36.3998 13.7582 36.8656 14.1797 37.2595C14.7079 37.7531 15.3858 38 16.0636 38C16.7415 38 17.4193 37.7531 17.9475 37.2595C18.3691 36.8655 18.8982 36.3998 19.511 35.8606C23.9201 31.9799 32.1273 24.7566 32.1273 16.0721C32.1272 11.7792 30.4564 7.74312 27.4223 4.70742ZM18.0415 34.1893C17.4153 34.7404 16.8746 35.2163 16.4288 35.6329C16.224 35.8242 15.9032 35.8243 15.6983 35.6329C15.2526 35.2162 14.7118 34.7403 14.0857 34.1892C9.94049 30.541 2.22466 23.75 2.22466 16.0721C2.22466 8.43737 8.4327 2.22605 16.0635 2.22605C23.6943 2.22605 29.9023 8.43737 29.9023 16.0721C29.9024 23.75 22.1866 30.541 18.0415 34.1893Z" fill="#DD5328"/>
<path d="M16.0594 8.38208C12.1539 8.38208 8.97656 11.5593 8.97656 15.4648C8.97656 19.3703 12.1539 22.5475 16.0594 22.5475C19.9648 22.5475 23.1421 19.3703 23.1421 15.4648C23.1421 11.5593 19.9648 8.38208 16.0594 8.38208ZM16.0594 20.3215C13.3813 20.3215 11.2025 18.1427 11.2025 15.4647C11.2025 12.7868 13.3813 10.608 16.0594 10.608C18.7374 10.608 20.9161 12.7868 20.9161 15.4647C20.9161 18.1427 18.7374 20.3215 16.0594 20.3215Z" fill="#DD5328"/>
</svg>
