<svg width="8" height="11" viewBox="0 0 8 11" fill="none" xmlns="http://www.w3.org/2000/svg">
<path d="M4 0C1.79467 0 0 1.86358 0 4.15479C0 7.41033 3.624 10.7718 3.77822 10.9129C3.84178 10.9711 3.92089 11 4 11C4.07911 11 4.15822 10.9711 4.22178 10.9134C4.376 10.7718 8 7.41033 8 4.15479C8 1.86358 6.20533 0 4 0ZM4 6.41667C2.77467 6.41667 1.77778 5.38863 1.77778 4.125C1.77778 2.86138 2.77467 1.83333 4 1.83333C5.22533 1.83333 6.22222 2.86138 6.22222 4.125C6.22222 5.38863 5.22533 6.41667 4 6.41667Z" fill="#DD5328"/>
</svg>
