<svg width="19" height="30" viewBox="0 0 19 30" fill="none" xmlns="http://www.w3.org/2000/svg">
<path d="M16.15 0H2.85C1.2825 0 0 1.26563 0 2.8125V27.1875C0 28.7344 1.2825 30 2.85 30H16.15C17.7175 30 19 28.7344 19 27.1875V2.8125C19 1.26563 17.7175 0 16.15 0ZM5.7 1.40625H13.3V2.34375H5.7V1.40625ZM9.5 28.125C8.99609 28.125 8.51282 27.9275 8.1565 27.5758C7.80018 27.2242 7.6 26.7473 7.6 26.25C7.6 25.7527 7.80018 25.2758 8.1565 24.9242C8.51282 24.5725 8.99609 24.375 9.5 24.375C10.0039 24.375 10.4872 24.5725 10.8435 24.9242C11.1998 25.2758 11.4 25.7527 11.4 26.25C11.4 26.7473 11.1998 27.2242 10.8435 27.5758C10.4872 27.9275 10.0039 28.125 9.5 28.125ZM17.1 22.5H1.9V3.75H17.1V22.5Z" fill="#00a0dc"/>
</svg>
