<svg width="32" height="27" viewBox="0 0 32 27" fill="none" xmlns="http://www.w3.org/2000/svg">
<path d="M16.75 25H3.25C2.65326 25 2.08097 24.7629 1.65901 24.341C1.23705 23.919 1 23.3467 1 22.75V3.25C1 2.65326 1.23705 2.08097 1.65901 1.65901C2.08097 1.23705 2.65326 1 3.25 1H28.75C29.3467 1 29.919 1.23705 30.341 1.65901C30.7629 2.08097 31 2.65326 31 3.25V13.7057" stroke="#FF004F" stroke-width="2" stroke-linecap="round" stroke-linejoin="round"/>
<path d="M1 3.25C1 2.65326 1.23705 2.08097 1.65901 1.65901C2.08097 1.23705 2.65326 1 3.25 1H28.75C29.3467 1 29.919 1.23705 30.341 1.65901C30.7629 2.08097 31 2.65326 31 3.25V10H1V3.25Z" stroke="#FF004F" stroke-width="2"/>
<path d="M22 21.25H31M26.5 16.75V25.75" stroke="#FF004F" stroke-width="2" stroke-linecap="round" stroke-linejoin="round"/>
<path d="M4 5.5C4 4.67157 4.67157 4 5.5 4C6.32843 4 7 4.67157 7 5.5C7 6.32843 6.32843 7 5.5 7C4.67157 7 4 6.32843 4 5.5Z" fill="#FF004F"/>
<path d="M8.5 5.5C8.5 4.67157 9.17157 4 10 4C10.8284 4 11.5 4.67157 11.5 5.5C11.5 6.32843 10.8284 7 10 7C9.17157 7 8.5 6.32843 8.5 5.5Z" fill="#FF004F"/>
</svg>
